<?xml version="1.0" standalone="no"?>
<!DOCTYPE svg PUBLIC "-//W3C//DTD SVG 20010904//EN"
 "http://www.w3.org/TR/2001/REC-SVG-20010904/DTD/svg10.dtd">
<svg version="1.0" xmlns="http://www.w3.org/2000/svg"
 width="700.000000pt" height="700.000000pt" viewBox="0 0 700.000000 700.000000"
 preserveAspectRatio="xMidYMid meet">
<metadata>
Created by potrace 1.11, written by Peter Selinger 2001-2013
</metadata>
<g transform="translate(0.000000,700.000000) scale(0.100000,-0.100000)"
fill="#000000" stroke="none">
<path d="M583 4960 c1 -199 4 -290 11 -291 58 -5 3465 -3 3476 2 13 6 15 48
15 291 l-1 283 -1750 3 -1751 2 0 -290z"/>
<path d="M599 4082 c-13 -2 -15 -43 -16 -292 l0 -290 1751 2 1750 3 1 283 c0
156 -2 287 -5 290 -5 7 -3450 10 -3481 4z"/>
<path d="M4671 4070 c-4 -8 -6 -270 -6 -582 1 -504 -1 -567 -15 -570 -8 -2
-270 -3 -582 -2 l-568 0 0 -291 0 -292 563 -1 c309 0 571 -1 583 -1 20 -1 20
-2 20 -558 -1 -307 0 -569 2 -583 l4 -25 286 0 287 1 3 582 c2 545 3 582 20
583 9 0 271 1 582 2 l565 2 0 290 0 290 -580 1 -580 0 -3 582 c-1 320 -5 582
-10 583 -4 1 -132 2 -285 2 -239 2 -280 0 -286 -13z"/>
<path d="M586 2911 c-2 -3 -2 -134 -2 -291 l1 -285 1165 0 1165 0 1 280 c1
154 -1 285 -3 291 -4 11 -2321 16 -2327 5z"/>
</g>
</svg>
